# xmcd
#
# Track frame offsets:
#	150
#	10300
#	22585
#	40187
#	49997
#	64332
#	78327
#	92470
#	105390
#	116102
#	128137
#	138702
#
# Disc length: 2012 seconds
#
# Revision: 0
# Processed by: cddbd v1.5.2PL0 Copyright (c) Steve Scherf et al.
# Submitted via: EasyCDDAExtractor 12.0.0.1
#
DISCID=9707da0c
DTITLE=Tony Light - Country Meets Rock 'n'roll
DYEAR=1992
DGENRE=Country
TTITLE0=Let's Make A Habit Of This
TTITLE1=Rosalie
TTITLE2=I Want You Little Susie
TTITLE3=Early In The Morning
TTITLE4=When The Snow Falls On The Roses
TTITLE5=You Never Can Tell
TTITLE6=I Got A Gal
TTITLE7=Halfway To Paradise
TTITLE8=Baby You Can Count On Me
TTITLE9=This Time
TTITLE10=Rockin' Robin
TTITLE11=give your wife some flowers
EXTD=
EXTT0=
EXTT1=
EXTT2=
EXTT3=
EXTT4=
EXTT5=
EXTT6=
EXTT7=
EXTT8=
EXTT9=
EXTT10=
EXTT11=
PLAYORDER=
